{"title":"Troop - Spread My Wings (MONsta Ole School Mix) 2011","uid":6222323,"size":57217377,"categoryP":"audio","categoryS":"other","magnet":"?xt=urn:btih:40a31017686580aa27d3c8035dcb5d4744d3c0ce&amp;dn=Troop+-+Spread+My+Wings+%28MONsta+Ole+School+Mix%29+2011&amp;tr=udp%3A%2F%2Ftracker.openbittorrent.com%3A80&amp;tr=udp%3A%2F%2Fopen.demonii.com%3A1337&amp;tr=udp%3A%2F%2Ftracker.coppersurfer.tk%3A6969&amp;tr=udp%3A%2F%2Fexodus.desync.com%3A6969","seeders":1,"leechers":0,"uploader":null,"files":4,"time":1299379907,"description":"Two Formats: FLAC/MP3\n\n(FILE 1)\nFormat : FLAC \nFormat/Info : Free Lossless Audio Codec \nDuration : 5mn 16s \nBit rate mode : Variable \nBit rate : 1 125 Kbps \nChannel(s) : 2 channels \nSampling rate : 44.1 KHz \nBit depth : 16 bits \nStream size : 42.5 MiB  \nWriting library : libFLAC 1.2.1 (UTC 2007-09-17)\n\n(FILE 2)\nFormat : MPEG Audio \nFormat version : Version 1 \nFormat profile : Layer 3 \nMode : Joint stereo \nDuration : 5mn 16s \nBit rate mode : Constant \nBit rate : 320 Kbps \nChannel(s) : 2 channels \nSampling rate : 44.1 KHz \nCompression mode : Lossy \nStream size : 12.1 MiB  \nWriting library : LAME3.98r \nEncoding settings : -m j -V 4 -q 2 -lowpass 20.5","torrent":{"xt":"urn:btih:40a31017686580aa27d3c8035dcb5d4744d3c0ce","amp;dn":"Troop+-+Spread+My+Wings+%28MONsta+Ole+School+Mix%29+2011","amp;tr":["udp%3A%2F%2Ftracker.openbittorrent.com%3A80","udp%3A%2F%2Fopen.demonii.com%3A1337","udp%3A%2F%2Ftracker.coppersurfer.tk%3A6969","udp%3A%2F%2Fexodus.desync.com%3A6969"],"infoHash":"40a31017686580aa27d3c8035dcb5d4744d3c0ce","infoHashBuffer":{"type":"Buffer","data":[64,163,16,23,104,101,128,170,39,211,200,3,93,203,93,71,68,211,192,206]},"announce":[],"urlList":[]}}